<svg width="38" height="38" viewBox="0 0 38 38" fill="none" xmlns="http://www.w3.org/2000/svg">
<path d="M19.0719 18.7243C17.6287 18.7243 16.1852 18.1749 15.0867 17.0761C12.8891 14.8788 12.8891 11.3033 15.0867 9.10571C16.151 8.04114 17.5664 7.45493 19.0719 7.45493C20.5775 7.45493 21.9925 8.04143 23.0571 9.10571C25.2547 11.3033 25.2547 14.8788 23.0571 17.0761C21.9583 18.1749 20.5151 18.7243 19.0719 18.7243ZM19.0719 9.68584C18.1996 9.68584 17.3272 10.0178 16.663 10.682C15.3346 12.0104 15.3346 14.1717 16.663 15.5001C17.3063 16.1434 18.1619 16.4977 19.0719 16.4977C19.982 16.4977 20.8375 16.1434 21.4808 15.5001C22.8092 14.1717 22.8092 12.0104 21.4808 10.682C20.8166 10.0178 19.9443 9.68584 19.0719 9.68584Z" fill="#AD77AA"/>
<path d="M19.0849 38L18.223 36.9876C17.7186 36.3947 5.86328 22.3627 5.86328 13.2086C5.86328 5.92532 11.7886 0 19.0719 0C26.3552 0 32.2805 5.92532 32.2805 13.2086C32.2805 21.9125 20.4357 36.3637 19.9315 36.9746L19.0849 38ZM19.0719 2.22917C13.0179 2.22917 8.09245 7.15457 8.09245 13.2086C8.09245 16.6111 10.1213 21.535 13.9598 27.4485C15.9518 30.5172 17.9577 33.1161 19.0597 34.4914C20.1634 33.0784 22.1885 30.394 24.193 27.267C28.0257 21.2886 30.0513 16.427 30.0513 13.2086C30.0513 7.15457 25.1259 2.22917 19.0719 2.22917Z" fill="#AD77AA"/>
</svg>
